Patient4_TMGait_0pt3_01_left_22_GRF.mot
version=1
nRows=32
nColumns=19
inDegrees=no
endheader
time	F1x	F1y	F1z	M1x	M1y	M1z	F2x	F2y	F2z	M2x	M2y	M2z	EC1x	EC1y	EC1z	EC2x	EC2y	EC2z
41.23	2.8603	0.10805	2.4686	-0.072446	-0.7257	1.6355	-34.0333	828.743	-55.8141	272.1872	71.3173	846.8354	-0.0592	0.0182	-0.0073	-0.0462	0.0165	0.9585
41.2485	1.9379	0.3873	1.6926	-0.18813	-0.53559	1.4249	-33.7272	842.9524	-56.2531	276.4341	71.1489	858.0246	-0.0592	0.0182	-0.0073	-0.0462	0.0165	0.9585
41.267	1.1657	0.6466	1.0379	-0.29201	-0.38631	1.2821	-32.8489	858.8949	-56.5112	281.308	70.5788	870.0298	-0.0592	0.0182	-0.0073	-0.0462	0.0165	0.9585
41.2855	0.58348	0.86462	0.53779	-0.37572	-0.27435	1.2041	-31.1702	874.6917	-56.3996	286.2785	69.3726	880.9887	-0.0592	0.0182	-0.0073	-0.0462	0.0165	0.9585
41.304	0.1839	1.0301	0.19116	-0.43488	-0.1954	1.1718	-28.5788	888.0567	-55.7614	290.6612	67.3586	888.7193	-0.0592	0.0182	-0.0073	-0.0462	0.0165	0.9585
41.3225	-0.064346	1.1317	-0.023128	-0.46452	-0.14535	1.1525	-25.1399	896.7447	-54.5108	293.7521	64.486	891.1715	-0.0592	0.0182	-0.0073	-0.0462	0.0165	0.9585
41.341	-0.20161	1.151	-0.13309	-0.45943	-0.12214	1.1045	-21.0439	899.0325	-52.6405	294.9841	60.8149	886.8826	-0.0592	0.0182	-0.0073	-0.0462	0.0165	0.9585
41.3595	-0.2704	1.0568	-0.16879	-0.40988	-0.12081	0.97952	-16.5167	894.0858	-50.2045	294.0496	56.4698	875.2971	-0.0592	0.0182	-0.0073	-0.0462	0.0165	0.9585
41.378	-0.30296	0.80266	-0.16081	-0.29899	-0.13224	0.71432	-11.7624	882.0681	-47.3154	290.9401	51.6181	856.8354	-0.0592	0.0182	-0.0073	-0.0462	0.0165	0.9585
41.3965	-0.32227	0.33927	-0.13269	-0.10648	-0.1508	0.23678	-6.9437	863.982	-44.1531	285.9003	46.4749	832.7094	-0.0592	0.0182	-0.0073	-0.0462	0.0165	0.9585
41.415	-0.34581	-0.38087	-0.10212	0.18699	-0.17129	-0.51465	-2.1911	841.4022	-40.9444	279.3512	41.2872	804.6407	-0.0592	0.0182	-0.0073	-0.0462	0.0165	0.9585
41.4335	-0.37921	-1.3875	-0.085587	0.59284	-0.18182	-1.573	2.3949	816.1744	-37.9386	271.805	36.3176	774.5503	-0.0592	0.0182	-0.0073	-0.0462	0.0165	0.9585
41.452	-0.41566	-2.6639	-0.098816	1.1045	-0.16343	-2.9184	6.7448	790.1319	-35.3837	263.7923	31.8275	744.264	-0.0592	0.0182	-0.0073	-0.0462	0.0165	0.9585
41.4705	-0.43239	-4.105	-0.15656	1.6802	-0.091605	-4.4384	10.8263	764.9997	-33.4519	255.8515	28.0053	715.4218	-0.0592	0.0182	-0.0073	-0.0462	0.0165	0.9585
41.489	-0.39251	-5.4732	-0.27274	2.2223	0.064473	-5.8792	14.6406	742.3607	-32.1776	248.5244	24.9049	689.4558	-0.0592	0.0182	-0.0073	-0.0462	0.0165	0.9585
41.5075	-0.24722	-6.3476	-0.46141	2.558	0.34233	-6.7931	18.213	723.5382	-31.4757	242.3069	22.4625	667.4953	-0.0592	0.0182	-0.0073	-0.0462	0.0165	0.9585
41.526	0.063884	-6.0795	-0.72916	2.4219	0.77401	-6.4836	21.5797	709.4496	-31.1991	237.581	20.5496	650.2637	-0.0592	0.0182	-0.0073	-0.0462	0.0165	0.9585
41.5445	0.60728	-3.7635	-1.0679	1.4449	1.3747	-3.9736	24.7419	700.4204	-31.191	234.5307	19.0339	637.9483	-0.0592	0.0182	-0.0073	-0.0462	0.0165	0.9585
41.563	1.4429	1.7419	-1.4458	-0.83838	2.1271	1.9658	27.6417	695.9959	-31.3242	233.0602	17.8231	630.0595	-0.0592	0.0182	-0.0073	-0.0462	0.0165	0.9585
41.5815	2.5982	11.7184	-1.7923	-4.9524	2.9576	12.7217	30.1642	694.8834	-31.5201	232.7633	16.8783	625.3992	-0.0592	0.0182	-0.0073	-0.0462	0.0165	0.9585
41.6	4.0384	27.3845	-1.9835	-11.3923	3.7121	29.6119	32.1408	695.0693	-31.7381	232.9628	16.2096	622.1749	-0.0592	0.0182	-0.0073	-0.0462	0.0165	0.9585
41.6185	5.6313	49.5224	-1.8302	-20.4696	4.1274	53.4717	33.3755	694.12	-31.9433	232.8183	15.8372	618.2663	-0.0592	0.0182	-0.0073	-0.0462	0.0165	0.9585
41.637	7.0832	77.9134	-1.076	-32.0815	3.8052	84.0448	33.691	689.6204	-32.0846	231.4818	15.757	611.5977	-0.0592	0.0182	-0.0073	-0.0462	0.0165	0.9585
41.6555	7.8989	110.6695	0.53066	-45.4368	2.2774	119.2734	32.9876	679.6435	-32.1033	228.2655	15.9339	600.5287	-0.0592	0.0182	-0.0073	-0.0462	0.0165	0.9585
41.674	7.7757	144.097	3.1148	-59.0136	-0.68859	155.1505	31.317	663.2155	-31.9664	222.8075	16.3081	584.2294	-0.0592	0.0182	-0.0073	-0.0462	0.0165	0.9585
41.6925	6.8246	174.8779	6.4552	-71.4683	-4.7739	188.0632	28.9542	640.7738	-31.6867	215.2345	16.7894	563.0469	-0.0592	0.0182	-0.0073	-0.0462	0.0165	0.9585
41.711	5.2294	202.5176	10.1077	-82.6205	-9.4163	217.4767	26.3508	614.1252	-31.3157	206.1515	17.2673	538.473	-0.0592	0.0182	-0.0073	-0.0462	0.0165	0.9585
41.7295	3.0712	228.3727	13.67	-93.0479	-14.1579	244.912	23.9502	585.6489	-30.8685	196.3723	17.6082	512.4844	-0.0592	0.0182	-0.0073	-0.0462	0.0165	0.9585
41.748	0.42446	253.9114	16.8328	-103.3685	-18.6535	272.0205	22.0124	557.3945	-30.2976	186.612	17.6908	486.7963	-0.0592	0.0182	-0.0073	-0.0462	0.0165	0.9585
41.7665	-2.6111	279.8386	19.3877	-113.8749	-22.6531	299.6243	20.5565	530.5292	-29.5725	177.2866	17.49	462.3975	-0.0592	0.0182	-0.0073	-0.0462	0.0165	0.9585
41.785	-5.9039	305.9538	21.2639	-124.4682	-26.0351	327.5724	19.4022	505.2504	-28.7329	168.4769	17.1037	439.4598	-0.0592	0.0182	-0.0073	-0.0462	0.0165	0.9585
41.8035	-9.2475	331.4774	22.5506	-134.7943	-28.8121	355.0633	18.2885	481.1453	-27.8513	160.0549	16.6789	417.6361	-0.0592	0.0182	-0.0073	-0.0462	0.0165	0.9585
